<mxfile host="app.diagrams.net" modified="2023-04-17T04:23:59.673Z" agent="Mozilla/5.0 (Windows NT 10.0; Win64; x64) AppleWebKit/537.36 (KHTML, like Gecko) Chrome/112.0.0.0 Safari/537.36" etag="qDzhFBSlDZ2DhxgTzJQy" version="21.1.8" type="github">
  <diagram id="C5RBs43oDa-KdzZeNtuy" name="Page-1">
    <mxGraphModel dx="1867" dy="753" grid="1" gridSize="10" guides="1" tooltips="1" connect="1" arrows="1" fold="1" page="1" pageScale="1" pageWidth="827" pageHeight="1169" math="0" shadow="0">
      <root>
        <mxCell id="WIyWlLk6GJQsqaUBKTNV-0" />
        <mxCell id="WIyWlLk6GJQsqaUBKTNV-1" parent="WIyWlLk6GJQsqaUBKTNV-0" />
        <mxCell id="WIyWlLk6GJQsqaUBKTNV-2" value="" style="rounded=0;html=1;jettySize=auto;orthogonalLoop=1;fontSize=11;endArrow=block;endFill=0;endSize=8;strokeWidth=1;shadow=0;labelBackgroundColor=none;edgeStyle=orthogonalEdgeStyle;entryX=0.5;entryY=0;entryDx=0;entryDy=0;" parent="WIyWlLk6GJQsqaUBKTNV-1" source="WIyWlLk6GJQsqaUBKTNV-3" edge="1" target="CzJtuqSI-6xWeTeD9xP4-1">
          <mxGeometry relative="1" as="geometry">
            <mxPoint x="200" y="130" as="targetPoint" />
          </mxGeometry>
        </mxCell>
        <mxCell id="WIyWlLk6GJQsqaUBKTNV-3" value="start" style="rounded=1;whiteSpace=wrap;html=1;fontSize=12;glass=0;strokeWidth=1;shadow=0;" parent="WIyWlLk6GJQsqaUBKTNV-1" vertex="1">
          <mxGeometry x="140" y="60" width="120" height="40" as="geometry" />
        </mxCell>
        <mxCell id="97V967sEQcQmiZGDf6Z8-4" value="" style="edgeStyle=orthogonalEdgeStyle;rounded=0;orthogonalLoop=1;jettySize=auto;html=1;" edge="1" parent="WIyWlLk6GJQsqaUBKTNV-1" source="CzJtuqSI-6xWeTeD9xP4-1" target="97V967sEQcQmiZGDf6Z8-3">
          <mxGeometry relative="1" as="geometry" />
        </mxCell>
        <mxCell id="CzJtuqSI-6xWeTeD9xP4-1" value="call main&lt;br&gt;function" style="shape=process;whiteSpace=wrap;html=1;backgroundOutline=1;" parent="WIyWlLk6GJQsqaUBKTNV-1" vertex="1">
          <mxGeometry x="140" y="130" width="120" height="60" as="geometry" />
        </mxCell>
        <mxCell id="97V967sEQcQmiZGDf6Z8-7" value="" style="edgeStyle=orthogonalEdgeStyle;rounded=0;orthogonalLoop=1;jettySize=auto;html=1;" edge="1" parent="WIyWlLk6GJQsqaUBKTNV-1" source="97V967sEQcQmiZGDf6Z8-3" target="97V967sEQcQmiZGDf6Z8-6">
          <mxGeometry relative="1" as="geometry" />
        </mxCell>
        <mxCell id="97V967sEQcQmiZGDf6Z8-3" value="get n" style="shape=parallelogram;perimeter=parallelogramPerimeter;whiteSpace=wrap;html=1;fixedSize=1;" vertex="1" parent="WIyWlLk6GJQsqaUBKTNV-1">
          <mxGeometry x="140" y="220" width="120" height="60" as="geometry" />
        </mxCell>
        <mxCell id="97V967sEQcQmiZGDf6Z8-9" value="" style="edgeStyle=orthogonalEdgeStyle;rounded=0;orthogonalLoop=1;jettySize=auto;html=1;" edge="1" parent="WIyWlLk6GJQsqaUBKTNV-1" source="97V967sEQcQmiZGDf6Z8-6" target="97V967sEQcQmiZGDf6Z8-8">
          <mxGeometry relative="1" as="geometry" />
        </mxCell>
        <mxCell id="97V967sEQcQmiZGDf6Z8-6" value="convert n to int" style="whiteSpace=wrap;html=1;" vertex="1" parent="WIyWlLk6GJQsqaUBKTNV-1">
          <mxGeometry x="140" y="300" width="120" height="60" as="geometry" />
        </mxCell>
        <mxCell id="97V967sEQcQmiZGDf6Z8-19" value="" style="edgeStyle=orthogonalEdgeStyle;rounded=0;orthogonalLoop=1;jettySize=auto;html=1;" edge="1" parent="WIyWlLk6GJQsqaUBKTNV-1" source="97V967sEQcQmiZGDf6Z8-8" target="97V967sEQcQmiZGDf6Z8-18">
          <mxGeometry relative="1" as="geometry" />
        </mxCell>
        <mxCell id="97V967sEQcQmiZGDf6Z8-8" value="call factorial function" style="shape=process;whiteSpace=wrap;html=1;backgroundOutline=1;" vertex="1" parent="WIyWlLk6GJQsqaUBKTNV-1">
          <mxGeometry x="300" y="300" width="120" height="60" as="geometry" />
        </mxCell>
        <mxCell id="97V967sEQcQmiZGDf6Z8-22" value="" style="edgeStyle=orthogonalEdgeStyle;rounded=0;orthogonalLoop=1;jettySize=auto;html=1;" edge="1" parent="WIyWlLk6GJQsqaUBKTNV-1" source="97V967sEQcQmiZGDf6Z8-16" target="97V967sEQcQmiZGDf6Z8-21">
          <mxGeometry relative="1" as="geometry" />
        </mxCell>
        <mxCell id="97V967sEQcQmiZGDf6Z8-26" value="" style="edgeStyle=orthogonalEdgeStyle;rounded=0;orthogonalLoop=1;jettySize=auto;html=1;" edge="1" parent="WIyWlLk6GJQsqaUBKTNV-1" source="97V967sEQcQmiZGDf6Z8-16" target="97V967sEQcQmiZGDf6Z8-25">
          <mxGeometry relative="1" as="geometry" />
        </mxCell>
        <mxCell id="97V967sEQcQmiZGDf6Z8-16" value="for i in range(1, n+1)" style="rhombus;whiteSpace=wrap;html=1;" vertex="1" parent="WIyWlLk6GJQsqaUBKTNV-1">
          <mxGeometry x="290" y="460" width="140" height="80" as="geometry" />
        </mxCell>
        <mxCell id="97V967sEQcQmiZGDf6Z8-20" value="" style="edgeStyle=orthogonalEdgeStyle;rounded=0;orthogonalLoop=1;jettySize=auto;html=1;" edge="1" parent="WIyWlLk6GJQsqaUBKTNV-1" source="97V967sEQcQmiZGDf6Z8-18" target="97V967sEQcQmiZGDf6Z8-16">
          <mxGeometry relative="1" as="geometry" />
        </mxCell>
        <mxCell id="97V967sEQcQmiZGDf6Z8-18" value="x=1" style="rounded=0;whiteSpace=wrap;html=1;" vertex="1" parent="WIyWlLk6GJQsqaUBKTNV-1">
          <mxGeometry x="325" y="390" width="70" height="40" as="geometry" />
        </mxCell>
        <mxCell id="97V967sEQcQmiZGDf6Z8-24" value="" style="edgeStyle=orthogonalEdgeStyle;rounded=0;orthogonalLoop=1;jettySize=auto;html=1;" edge="1" parent="WIyWlLk6GJQsqaUBKTNV-1" source="97V967sEQcQmiZGDf6Z8-21" target="97V967sEQcQmiZGDf6Z8-23">
          <mxGeometry relative="1" as="geometry" />
        </mxCell>
        <mxCell id="97V967sEQcQmiZGDf6Z8-32" value="" style="edgeStyle=orthogonalEdgeStyle;rounded=0;orthogonalLoop=1;jettySize=auto;html=1;" edge="1" parent="WIyWlLk6GJQsqaUBKTNV-1" source="97V967sEQcQmiZGDf6Z8-21" target="97V967sEQcQmiZGDf6Z8-31">
          <mxGeometry relative="1" as="geometry" />
        </mxCell>
        <mxCell id="97V967sEQcQmiZGDf6Z8-21" value="if n==0" style="rhombus;whiteSpace=wrap;html=1;" vertex="1" parent="WIyWlLk6GJQsqaUBKTNV-1">
          <mxGeometry x="480" y="465" width="80" height="70" as="geometry" />
        </mxCell>
        <mxCell id="97V967sEQcQmiZGDf6Z8-36" value="" style="edgeStyle=orthogonalEdgeStyle;rounded=0;orthogonalLoop=1;jettySize=auto;html=1;entryX=0.5;entryY=0;entryDx=0;entryDy=0;" edge="1" parent="WIyWlLk6GJQsqaUBKTNV-1" source="97V967sEQcQmiZGDf6Z8-23" target="97V967sEQcQmiZGDf6Z8-38">
          <mxGeometry relative="1" as="geometry">
            <mxPoint x="550" y="670" as="targetPoint" />
          </mxGeometry>
        </mxCell>
        <mxCell id="97V967sEQcQmiZGDf6Z8-23" value="return 1" style="whiteSpace=wrap;html=1;" vertex="1" parent="WIyWlLk6GJQsqaUBKTNV-1">
          <mxGeometry x="480" y="580" width="80" height="35" as="geometry" />
        </mxCell>
        <mxCell id="97V967sEQcQmiZGDf6Z8-28" style="edgeStyle=orthogonalEdgeStyle;rounded=0;orthogonalLoop=1;jettySize=auto;html=1;" edge="1" parent="WIyWlLk6GJQsqaUBKTNV-1" source="97V967sEQcQmiZGDf6Z8-25">
          <mxGeometry relative="1" as="geometry">
            <mxPoint x="360" y="440" as="targetPoint" />
            <Array as="points">
              <mxPoint x="260" y="585" />
              <mxPoint x="260" y="440" />
              <mxPoint x="310" y="440" />
            </Array>
          </mxGeometry>
        </mxCell>
        <mxCell id="97V967sEQcQmiZGDf6Z8-25" value="x*=i" style="whiteSpace=wrap;html=1;" vertex="1" parent="WIyWlLk6GJQsqaUBKTNV-1">
          <mxGeometry x="325" y="570" width="70" height="30" as="geometry" />
        </mxCell>
        <mxCell id="97V967sEQcQmiZGDf6Z8-27" value="yes" style="text;html=1;strokeColor=none;fillColor=none;align=center;verticalAlign=middle;whiteSpace=wrap;rounded=0;" vertex="1" parent="WIyWlLk6GJQsqaUBKTNV-1">
          <mxGeometry x="355" y="535" width="40" height="25" as="geometry" />
        </mxCell>
        <mxCell id="97V967sEQcQmiZGDf6Z8-29" value="no" style="text;html=1;strokeColor=none;fillColor=none;align=center;verticalAlign=middle;whiteSpace=wrap;rounded=0;" vertex="1" parent="WIyWlLk6GJQsqaUBKTNV-1">
          <mxGeometry x="430" y="480" width="40" height="25" as="geometry" />
        </mxCell>
        <mxCell id="97V967sEQcQmiZGDf6Z8-30" value="yes" style="text;html=1;strokeColor=none;fillColor=none;align=center;verticalAlign=middle;whiteSpace=wrap;rounded=0;" vertex="1" parent="WIyWlLk6GJQsqaUBKTNV-1">
          <mxGeometry x="490" y="540" width="40" height="25" as="geometry" />
        </mxCell>
        <mxCell id="97V967sEQcQmiZGDf6Z8-37" style="edgeStyle=orthogonalEdgeStyle;rounded=0;orthogonalLoop=1;jettySize=auto;html=1;exitX=0.5;exitY=1;exitDx=0;exitDy=0;entryX=0.5;entryY=0;entryDx=0;entryDy=0;" edge="1" parent="WIyWlLk6GJQsqaUBKTNV-1" source="97V967sEQcQmiZGDf6Z8-31" target="97V967sEQcQmiZGDf6Z8-38">
          <mxGeometry relative="1" as="geometry">
            <mxPoint x="640" y="670" as="targetPoint" />
          </mxGeometry>
        </mxCell>
        <mxCell id="97V967sEQcQmiZGDf6Z8-31" value="return x" style="whiteSpace=wrap;html=1;" vertex="1" parent="WIyWlLk6GJQsqaUBKTNV-1">
          <mxGeometry x="600" y="482.5" width="80" height="35" as="geometry" />
        </mxCell>
        <mxCell id="97V967sEQcQmiZGDf6Z8-33" value="no" style="text;html=1;strokeColor=none;fillColor=none;align=center;verticalAlign=middle;whiteSpace=wrap;rounded=0;" vertex="1" parent="WIyWlLk6GJQsqaUBKTNV-1">
          <mxGeometry x="550" y="480" width="40" height="25" as="geometry" />
        </mxCell>
        <mxCell id="97V967sEQcQmiZGDf6Z8-40" value="" style="edgeStyle=orthogonalEdgeStyle;rounded=0;orthogonalLoop=1;jettySize=auto;html=1;" edge="1" parent="WIyWlLk6GJQsqaUBKTNV-1" source="97V967sEQcQmiZGDf6Z8-38" target="97V967sEQcQmiZGDf6Z8-39">
          <mxGeometry relative="1" as="geometry" />
        </mxCell>
        <mxCell id="97V967sEQcQmiZGDf6Z8-38" value="print output" style="shape=parallelogram;perimeter=parallelogramPerimeter;whiteSpace=wrap;html=1;fixedSize=1;" vertex="1" parent="WIyWlLk6GJQsqaUBKTNV-1">
          <mxGeometry x="550" y="660" width="90" height="40" as="geometry" />
        </mxCell>
        <mxCell id="97V967sEQcQmiZGDf6Z8-39" value="end" style="rounded=1;whiteSpace=wrap;html=1;" vertex="1" parent="WIyWlLk6GJQsqaUBKTNV-1">
          <mxGeometry x="552.5" y="730" width="85" height="30" as="geometry" />
        </mxCell>
      </root>
    </mxGraphModel>
  </diagram>
</mxfile>
